<?xml version="1.0" standalone="no"?>
<!DOCTYPE svg PUBLIC "-//W3C//DTD SVG 1.0//EN" "http://www.w3.org/TR/2001/REC-SVG-20010904/DTD/svg10.dtd">
<svg xmlns="http://www.w3.org/2000/svg" xmlns:xlink="http://www.w3.org/1999/xlink" id="body_1" width="350" height="169">

<g transform="matrix(0.7 0 0 0.70124483 0 0)">
	<g>
        <path d="M-0.5 -0.5C 166.167 -0.5 332.833 -0.5 499.5 -0.5C 499.5 79.8333 499.5 160.167 499.5 240.5C 332.833 240.5 166.167 240.5 -0.5 240.5C -0.5 160.167 -0.5 79.8333 -0.5 -0.5z" stroke="none" fill="#F4F4F4" fill-rule="nonzero" />
	</g>
	<g>
        <path d="M406.5 23.5C 411.123 22.4082 412.956 24.0748 412 28.5C 407.693 29.9612 405.859 28.2945 406.5 23.5z" stroke="none" fill="#E2B7B3" fill-rule="nonzero" />
	</g>
	<g>
        <path d="M87.5 23.5C 90.5876 23.1966 92.2542 24.5299 92.5 27.5C 90.8333 27.5 89.1667 27.5 87.5 27.5C 87.5 26.1667 87.5 24.8333 87.5 23.5z" stroke="none" fill="#DBA8A7" fill-rule="nonzero" />
	</g>
	<g>
        <path d="M80.5 47.5C 79.8333 47.1667 79.1667 46.8333 78.5 46.5C 76.6896 40.2594 75.3562 33.9261 74.5 27.5C 76.9806 27.3234 78.8139 28.3234 80 30.5C 80.4994 36.1569 80.6661 41.8236 80.5 47.5z" stroke="none" fill="#81877D" fill-rule="nonzero" />
	</g>
	<g>
        <path d="M469.5 41.5C 469.44 42.0431 469.107 42.3764 468.5 42.5C 460.919 37.9659 456.919 40.2992 456.5 49.5C 460.35 49.8221 463.517 48.4887 466 45.5C 466.464 46.0944 466.631 46.7611 466.5 47.5C 464.025 50.2411 461.025 52.2411 457.5 53.5C 456.001 51.5102 455.168 49.1768 455 46.5C 452.67 48.0317 450.67 47.6983 449 45.5C 448.506 47.1341 448.34 48.8008 448.5 50.5C 447.178 42.4458 449.845 35.7792 456.5 30.5C 461.171 33.8436 465.505 37.5103 469.5 41.5z" stroke="none" fill="#EFAC9D" fill-rule="nonzero" />
	</g>
	<g>
        <path d="M420.5 46.5C 419.833 47.1667 419.167 47.8333 418.5 48.5C 418.334 42.4908 418.501 36.4908 419 30.5C 420.444 28.8446 422.278 28.178 424.5 28.5C 424.663 30.8568 424.497 33.1902 424 35.5C 422.326 39.0207 421.16 42.6873 420.5 46.5z" stroke="none" fill="#80857A" fill-rule="nonzero" />
	</g>
	<g>
        <path d="M45.5 32.5C 41.3385 31.3885 38.0052 32.7218 35.5 36.5C 37.856 39.0217 40.0227 41.6884 42 44.5C 43.1371 48.37 41.6371 50.2033 37.5 50C 38.3805 50.7083 39.0472 51.5416 39.5 52.5C 34.915 49.5864 30.915 45.9198 27.5 41.5C 31.6593 37.5096 35.9926 33.6763 40.5 30C 42.9278 29.253 44.5944 30.0863 45.5 32.5z" stroke="none" fill="#F3C3B9" fill-rule="nonzero" />
	</g>
	<g>
        <path d="M76.5 57.5C 70.3125 51.116 67.4791 43.4493 68 34.5C 70.2342 33.2946 71.9008 33.9613 73 36.5C 73.8928 43.5867 75.0595 50.5867 76.5 57.5z" stroke="none" fill="#868A81" fill-rule="nonzero" />
	</g>
	<g>
        <path d="M406.5 33.5C 407.822 33.33 408.989 33.6634 410 34.5C 411.762 41.3668 413.762 48.0335 416 54.5C 412.419 49.672 409.085 44.672 406 39.5C 405.322 37.4024 405.489 35.4024 406.5 33.5z" stroke="none" fill="#898C84" fill-rule="nonzero" />
	</g>
	<g>
        <path d="M45.5 32.5C 49.6017 37.2981 51.2683 42.6315 50.5 48.5C 50.6495 47.448 50.4828 46.448 50 45.5C 47.9592 46.4231 45.7925 46.7564 43.5 46.5C 43.5321 49.0758 42.8654 51.4091 41.5 53.5C 40.8333 53.1667 40.1667 52.8333 39.5 52.5C 39.0472 51.5416 38.3805 50.7083 37.5 50C 41.6371 50.2033 43.1371 48.37 42 44.5C 40.0227 41.6884 37.856 39.0217 35.5 36.5C 38.0052 32.7218 41.3385 31.3885 45.5 32.5z" stroke="none" fill="#EEAA9A" fill-rule="nonzero" />
	</g>
	<g>
        <path d="M82.5 54.5C 82.1667 54.5 81.8333 54.5 81.5 54.5C 82.9734 51.5531 84.4734 48.5531 86 45.5C 86.2969 42.086 86.9635 38.7527 88 35.5C 88.8793 32.6537 90.5459 31.987 93 33.5C 93.6667 35.1667 93.6667 36.8333 93 38.5C 89.6705 43.9863 86.1705 49.3196 82.5 54.5z" stroke="none" fill="#8E918A" fill-rule="nonzero" />
	</g>
	<g>
        <path d="M424.5 55.5C 423.833 55.5 423.5 55.1667 423.5 54.5C 424.168 48.853 425.001 43.1863 426 37.5C 428.335 33.3964 430.168 33.5631 431.5 38C 430.292 44.3798 427.959 50.2131 424.5 55.5z" stroke="none" fill="#82867B" fill-rule="nonzero" />
	</g>
	<g>
        <path d="M469.5 41.5C 470.043 41.56 470.376 41.8933 470.5 42.5C 469.113 44.21 467.779 45.8767 466.5 47.5C 466.631 46.7611 466.464 46.0944 466 45.5C 463.517 48.4887 460.35 49.8221 456.5 49.5C 456.919 40.2992 460.919 37.9659 468.5 42.5C 469.107 42.3764 469.44 42.0431 469.5 41.5z" stroke="none" fill="#F4CABF" fill-rule="nonzero" />
	</g>
	<g>
        <path d="M50.5 48.5C 49.1701 52.918 46.1701 54.5847 41.5 53.5C 42.8654 51.4091 43.5321 49.0758 43.5 46.5C 45.7925 46.7564 47.9592 46.4231 50 45.5C 50.4828 46.448 50.6495 47.448 50.5 48.5z" stroke="none" fill="#976562" fill-rule="nonzero" />
	</g>
	<g>
        <path d="M92.5 44.5C 94.1667 44.5 95.8333 44.5 97.5 44.5C 97.3027 51.0322 93.9694 54.0322 87.5 53.5C 87.3723 49.4153 89.039 46.4153 92.5 44.5z" stroke="none" fill="#648C43" fill-rule="nonzero" />
	</g>
	<g>
        <path d="M402.5 45.5C 402.498 47.8309 403.331 49.8309 405 51.5C 406.011 52.3366 407.178 52.67 408.5 52.5C 408.657 51.1266 408.49 49.7932 408 48.5C 406.583 47.9221 405.75 46.9221 405.5 45.5C 409.736 46.9625 411.736 49.9625 411.5 54.5C 407.406 55.2954 404.239 53.962 402 50.5C 401.22 48.6131 401.387 46.9464 402.5 45.5z" stroke="none" fill="#67884F" fill-rule="nonzero" />
	</g>
	<g>
        <path d="M402.5 45.5C 403.5 45.5 404.5 45.5 405.5 45.5C 405.75 46.9221 406.583 47.9221 408 48.5C 408.49 49.7932 408.657 51.1266 408.5 52.5C 407.178 52.67 406.011 52.3366 405 51.5C 403.331 49.8309 402.498 47.8309 402.5 45.5z" stroke="none" fill="#609730" fill-rule="nonzero" />
	</g>
	<g>
        <path d="M457.5 53.5C 450.501 53.6121 445.335 56.9454 442 63.5C 441.333 65.1667 441.333 66.8333 442 68.5C 444.054 71.0472 445.887 73.7139 447.5 76.5C 447.44 77.0431 447.107 77.3764 446.5 77.5C 445.482 76.8075 444.482 76.1408 443.5 75.5C 442.242 73.3131 441.242 70.9798 440.5 68.5C 440.5 68.1667 440.5 67.8333 440.5 67.5C 440.737 66.209 440.404 65.209 439.5 64.5C 442.083 60.4105 445.25 56.7438 449 53.5C 449.74 52.2506 449.573 51.2506 448.5 50.5C 448.34 48.8008 448.506 47.1341 449 45.5C 450.67 47.6983 452.67 48.0317 455 46.5C 455.168 49.1768 456.001 51.5102 457.5 53.5z" stroke="none" fill="#976D60" fill-rule="nonzero" />
	</g>
	<g>
        <path d="M67.5 59.5C 65.8333 59.5 64.1667 59.5 62.5 59.5C 62.5 56.8333 62.5 54.1667 62.5 51.5C 64.1439 51.2865 65.6439 51.6198 67 52.5C 67.4966 54.8098 67.6633 57.1432 67.5 59.5z" stroke="none" fill="#81857B" fill-rule="nonzero" />
	</g>
	<g>
        <path d="M436.5 60.5C 434.833 60.5 433.167 60.5 431.5 60.5C 431.336 57.8127 431.503 55.146 432 52.5C 433.333 51.1667 434.667 51.1667 436 52.5C 436.497 55.146 436.664 57.8127 436.5 60.5z" stroke="none" fill="#7C8677" fill-rule="nonzero" />
	</g>
	<g>
        <path d="M324.5 60.5C 325.764 62.7721 325.598 65.1055 324 67.5C 318.927 73.2439 313.26 78.2439 307 82.5C 305.564 85.4742 304.564 88.4742 304 91.5C 305.704 89.6266 307.537 87.9599 309.5 86.5C 307.121 90.7259 304.121 94.5592 300.5 98C 299.184 98.5281 298.517 98.0281 298.5 96.5C 300.368 93.0629 301.534 89.3962 302 85.5C 301.617 86.056 301.117 86.3893 300.5 86.5C 304.563 80.0514 308.396 73.3847 312 66.5C 314.205 63.9598 316.705 61.7932 319.5 60C 321.387 59.2204 323.054 59.3871 324.5 60.5z" stroke="none" fill="#181818" fill-rule="nonzero" />
	</g>
	<g>
        <path d="M140.5 60.5C 149.051 60.4783 157.551 61.145 166 62.5C 175.699 59.0732 176.699 60.7399 169 67.5C 168.667 69.1667 168.333 70.8333 168 72.5C 167.272 69.7695 167.438 67.1029 168.5 64.5C 162.193 63.5971 155.859 62.9304 149.5 62.5C 142.06 62.3642 135.893 65.0309 131 70.5C 129.729 74.1661 130.896 76.6661 134.5 78C 129.217 77.6804 127.384 74.8471 129 69.5C 131.683 64.922 135.517 61.922 140.5 60.5z" stroke="none" fill="#1A1A1A" fill-rule="nonzero" />
	</g>
	<g>
        <path d="M79.5 71.5C 79.1667 71.5 78.8333 71.5 78.5 71.5C 81.7527 67.9999 84.2527 63.9999 86 59.5C 88.5741 55.4052 90.4075 55.5719 91.5 60C 91.3749 61.6268 90.8749 63.1268 90 64.5C 86.8722 67.4736 83.3722 69.8069 79.5 71.5z" stroke="none" fill="#868B80" fill-rule="nonzero" />
	</g>
	<g>
        <path d="M324.5 60.5C 321.779 68.0693 316.946 74.0693 310 78.5C 311.727 70.0701 316.56 64.0701 324.5 60.5z" stroke="none" fill="#E0E0E0" fill-rule="nonzero" />
	</g>
	<g>
        <path d="M420.5 71.5C 420.5 72.1667 420.167 72.5 419.5 72.5C 415.61 70.781 412.11 68.4476 409 65.5C 406.879 62.5426 407.046 59.8759 409.5 57.5C 412.944 60.4576 415.444 64.1243 417 68.5C 418.039 69.7101 419.206 70.7101 420.5 71.5z" stroke="none" fill="#858A81" fill-rule="nonzero" />
	</g>
	<g>
        <path d="M67.5 60.5C 68.5 60.5 69.5 60.5 70.5 60.5C 70.7271 62.9328 69.7271 64.5994 67.5 65.5C 65.2841 65.7254 63.6174 64.8921 62.5 63C 63.6174 61.1079 65.2841 60.2746 67.5 60.5z" stroke="none" fill="#639536" fill-rule="nonzero" />
	</g>
	<g>
        <path d="M431.5 60.5C 433.167 60.5 434.833 60.5 436.5 60.5C 436.738 62.4044 437.738 63.7377 439.5 64.5C 440.404 65.209 440.737 66.209 440.5 67.5C 437.391 67.7359 434.391 67.4025 431.5 66.5C 429.855 65.5213 428.521 64.188 427.5 62.5C 428.32 60.8888 429.654 60.2222 431.5 60.5z" stroke="none" fill="#699146" fill-rule="nonzero" />
	</g>
	<g>
        <path d="M62.5 59.5C 64.1667 59.5 65.8333 59.5 67.5 59.5C 67.5 59.8333 67.5 60.1667 67.5 60.5C 65.2841 60.2746 63.6174 61.1079 62.5 63C 63.6174 64.8921 65.2841 65.7254 67.5 65.5C 67.5 66.1667 67.1667 66.5 66.5 66.5C 65.609 67.1098 64.609 67.4431 63.5 67.5C 61.8333 67.5 60.1667 67.5 58.5 67.5C 58.5 66.1667 58.5 64.8333 58.5 63.5C 60.8333 63.1667 62.1667 61.8333 62.5 59.5z" stroke="none" fill="#608044" fill-rule="nonzero" />
	</g>
	<g>
        <path d="M58.5 63.5C 58.5 64.8333 58.5 66.1667 58.5 67.5C 57.242 69.6869 56.242 72.0202 55.5 74.5C 54.2058 75.2899 53.0391 76.2899 52 77.5C 51.5357 76.9056 51.369 76.2389 51.5 75.5C 54.134 72.3651 56.134 68.8651 57.5 65C 56.7201 62.3215 55.8867 59.8215 55 57.5C 56.9473 59.0634 58.114 61.0634 58.5 63.5z" stroke="none" fill="#846146" fill-rule="nonzero" />
	</g>
	<g>
        <path d="M58.5 67.5C 60.1667 67.5 61.8333 67.5 63.5 67.5C 63.5564 72.3895 64.5564 77.0561 66.5 81.5C 63.0635 78.7997 59.3968 76.4663 55.5 74.5C 56.242 72.0202 57.242 69.6869 58.5 67.5z" stroke="none" fill="#EEEAE4" fill-rule="nonzero" />
	</g>
	<g>
        <path d="M66.5 66.5C 66.3375 71.547 66.6708 76.547 67.5 81.5C 67.1667 81.5 66.8333 81.5 66.5 81.5C 64.5564 77.0561 63.5564 72.3895 63.5 67.5C 64.609 67.4431 65.609 67.1098 66.5 66.5z" stroke="none" fill="#7C847B" fill-rule="nonzero" />
	</g>
	<g>
        <path d="M78.5 46.5C 79.1667 46.8333 79.8333 47.1667 80.5 47.5C 79.8654 50.4929 79.6987 53.4929 80 56.5C 80.2784 55.5842 80.7784 54.9175 81.5 54.5C 81.8333 54.5 82.1667 54.5 82.5 54.5C 79.3382 58.9754 77.3382 63.9754 76.5 69.5C 76.7472 70.7133 77.4138 71.38 78.5 71.5C 78.8333 71.5 79.1667 71.5 79.5 71.5C 78.019 72.4212 76.6856 73.5879 75.5 75C 74.1213 79.6393 72.4546 84.1393 70.5 88.5C 69.1667 86.8333 67.8333 85.1667 66.5 83.5C 66.5 82.8333 66.5 82.1667 66.5 81.5C 66.8333 81.5 67.1667 81.5 67.5 81.5C 68.5585 82.6002 69.3918 83.9336 70 85.5C 72.8822 77.4768 75.3822 69.3101 77.5 61C 77.0109 59.8615 76.6775 58.6948 76.5 57.5C 77.2216 57.0825 77.7216 56.4158 78 55.5C 78.498 52.5184 78.6646 49.5184 78.5 46.5z" stroke="none" fill="#B8BBB6" fill-rule="nonzero" />
	</g>
	<g>
        <path d="M291.5 95.5C 287.431 98.7459 282.764 100.413 277.5 100.5C 277.543 96.41 278.876 95.7434 281.5 98.5C 292.081 93.9108 292.081 89.5775 281.5 85.5C 283.739 76.781 289.405 72.9476 298.5 74C 299.554 75.3876 299.72 76.8876 299 78.5C 298.517 77.552 298.351 76.552 298.5 75.5C 292.787 75.6058 288.287 77.9391 285 82.5C 284.333 83.5 284.333 84.5 285 85.5C 287.686 86.6759 290.019 88.3425 292 90.5C 292.384 92.1966 292.218 93.8632 291.5 95.5z" stroke="none" fill="#1C1C1C" fill-rule="nonzero" />
	</g>
	<g>
        <path d="M420.5 46.5C 420.095 50.0479 420.595 53.3812 422 56.5C 422.278 55.5842 422.778 54.9175 423.5 54.5C 423.5 55.1667 423.833 55.5 424.5 55.5C 423.513 57.4734 422.513 59.4734 421.5 61.5C 422.771 69.9245 425.271 77.9245 429 85.5C 429.852 84.4293 430.685 83.4293 431.5 82.5C 431.5 82.8333 431.5 83.1667 431.5 83.5C 430.489 85.3716 429.655 87.3716 429 89.5C 426.163 84.8281 424.163 79.8281 423 74.5C 421.698 73.9152 420.531 73.2485 419.5 72.5C 420.167 72.5 420.5 72.1667 420.5 71.5C 421.152 70.5514 421.486 69.3847 421.5 68C 420.111 61.5501 419.111 55.0501 418.5 48.5C 419.167 47.8333 419.833 47.1667 420.5 46.5z" stroke="none" fill="#B4B5B2" fill-rule="nonzero" />
	</g>
	<g>
        <path d="M440.5 68.5C 441.242 70.9798 442.242 73.3131 443.5 75.5C 443.489 77.0174 442.823 78.1841 441.5 79C 438.247 79.2009 435.247 80.0343 432.5 81.5C 434.118 77.3111 435.118 72.9777 435.5 68.5C 437.167 68.5 438.833 68.5 440.5 68.5z" stroke="none" fill="#F0E9E6" fill-rule="nonzero" />
	</g>
	<g>
        <path d="M227.5 94.5C 225.999 95.7515 224.332 96.7515 222.5 97.5C 221.833 96.8333 221.167 96.1667 220.5 95.5C 228.104 93.0591 232.771 87.8924 234.5 80C 234.401 77.4523 233.068 75.9523 230.5 75.5C 234.386 73.9456 236.719 75.2789 237.5 79.5C 235.411 85.3499 232.077 90.3499 227.5 94.5z" stroke="none" fill="#2C2C2C" fill-rule="nonzero" />
	</g>
	<g>
        <path d="M363.5 93.5C 359.255 96.2863 354.589 97.9529 349.5 98.5C 346.761 104.217 344.928 110.217 344 116.5C 342.89 118.037 341.39 118.703 339.5 118.5C 342.446 110.94 345.112 103.273 347.5 95.5C 349.449 89.8236 351.616 83.8236 354 77.5C 355.011 76.6634 356.178 76.33 357.5 76.5C 357.23 79.3126 356.73 81.9792 356 84.5C 359.351 79.7897 363.684 78.4563 369 80.5C 369.667 82.8333 369.667 85.1667 369 87.5C 366.96 89.3702 365.127 91.3702 363.5 93.5z" stroke="none" fill="#19191A" fill-rule="nonzero" />
	</g>
	<g>
        <path d="M201.5 89.5C 199.705 93.9786 196.539 95.3119 192 93.5C 188.569 97.8941 184.569 98.5608 180 95.5C 179.667 93.8333 179.333 92.1667 179 90.5C 176.795 93.0402 174.295 95.2068 171.5 97C 167.494 98.4207 164.828 97.254 163.5 93.5C 166.224 80.5513 172.224 69.3846 181.5 60C 187.094 58.0868 189.261 59.9202 188 65.5C 182.437 74.2338 175.603 81.9005 167.5 88.5C 164.904 96.0809 166.904 97.9142 173.5 94C 178.534 89.3012 183.2 84.3012 187.5 79C 192.86 77.3499 195.86 79.3499 196.5 85C 196.049 87.5684 195.049 89.9017 193.5 92C 193.833 92.3333 194.167 92.6667 194.5 93C 197.3 92.9335 199.633 91.7668 201.5 89.5z" stroke="none" fill="#1B1B1B" fill-rule="nonzero" />
	</g>
	<g>
        <path d="M184.5 60.5C 185.586 60.62 186.253 61.2867 186.5 62.5C 182.621 71.5627 176.787 79.2294 169 85.5C 172.1 75.9843 177.266 67.6509 184.5 60.5z" stroke="none" fill="#E4E4E4" fill-rule="nonzero" />
	</g>
	<g>
        <path d="M260.5 86.5C 256.025 94.235 249.358 98.0683 240.5 98C 238.65 97.3103 237.316 96.1436 236.5 94.5C 237.624 87.1982 241.624 82.0315 248.5 79C 255.109 77.2715 256.942 79.4382 254 85.5C 251.197 87.8186 248.03 89.4853 244.5 90.5C 243.304 90.1543 243.304 89.6543 244.5 89C 249.363 87.9396 252.363 85.1063 253.5 80.5C 248.768 81.7102 244.934 84.3768 242 88.5C 240.748 91.0135 240.248 93.6802 240.5 96.5C 245.287 97.0301 249.62 95.8634 253.5 93C 255.75 90.5778 258.083 88.4111 260.5 86.5z" stroke="none" fill="#232323" fill-rule="nonzero" />
	</g>
	<g>
        <path d="M281.5 85.5C 278.358 91.3104 273.692 95.3104 267.5 97.5C 263.774 97.2017 262.607 95.2017 264 91.5C 266.139 88.0607 268.639 84.894 271.5 82C 270.541 80.5362 269.208 79.7028 267.5 79.5C 265.423 80.3228 263.756 81.6561 262.5 83.5C 263.626 81.5005 263.793 79.5005 263 77.5C 264.684 75.6487 266.517 73.982 268.5 72.5C 269.223 74.1639 268.89 75.8306 267.5 77.5C 270.167 78.1667 272.833 78.8333 275.5 79.5C 272.75 83.3318 270.25 87.3318 268 91.5C 267.202 93.2588 267.369 94.9255 268.5 96.5C 273.146 93.1859 277.479 89.5192 281.5 85.5z" stroke="none" fill="#171717" fill-rule="nonzero" />
	</g>
	<g>
        <path d="M345.5 94.5C 341.634 92.6889 338.634 93.5222 336.5 97C 330.298 99.1208 327.132 96.9541 327 90.5C 323.602 95.2848 319.102 97.4515 313.5 97C 312.178 91.9345 313.178 87.2678 316.5 83C 315.181 82.805 313.847 82.9717 312.5 83.5C 314.193 80.3182 316.859 78.6516 320.5 78.5C 319.731 82.7709 318.231 86.7709 316 90.5C 314.85 96.6711 316.683 97.8378 321.5 94C 325.918 90.2533 329.584 85.9199 332.5 81C 334.209 79.4554 336.209 78.6221 338.5 78.5C 340.319 78.3422 341.652 79.0089 342.5 80.5C 335.442 81.5538 331.109 85.8872 329.5 93.5C 329.608 94.4419 329.941 95.2753 330.5 96C 334.26 97.1762 337.093 96.0096 339 92.5C 340.691 89.3927 341.858 86.0594 342.5 82.5C 343.881 82.9996 344.547 83.9996 344.5 85.5C 343.428 88.2037 342.428 90.8704 341.5 93.5C 342.93 93.5792 344.264 93.2458 345.5 92.5C 346.463 92.9698 346.463 93.6365 345.5 94.5z" stroke="none" fill="#191919" fill-rule="nonzero" />
	</g>
	<g>
        <path d="M431.5 66.5C 434.391 67.4025 437.391 67.7359 440.5 67.5C 440.5 67.8333 440.5 68.1667 440.5 68.5C 438.833 68.5 437.167 68.5 435.5 68.5C 435.118 72.9777 434.118 77.3111 432.5 81.5C 432.5 82.1667 432.167 82.5 431.5 82.5C 431.5 77.1667 431.5 71.8333 431.5 66.5z" stroke="none" fill="#8E9185" fill-rule="nonzero" />
	</g>
	<g>
        <path d="M154.5 80.5C 156.415 80.2155 158.081 80.5489 159.5 81.5C 154.802 82.1001 150.136 82.9334 145.5 84C 142.678 87.788 141.178 91.9546 141 96.5C 142 95.5 143 94.5 144 93.5C 144.399 93.7284 144.565 94.0618 144.5 94.5C 143.145 97.5177 140.812 98.851 137.5 98.5C 137.5 97.1667 137.5 95.8333 137.5 94.5C 139.121 91.2585 140.787 87.9252 142.5 84.5C 141.167 83.8333 139.833 83.1667 138.5 82.5C 139.966 80.3432 141.8 80.0099 144 81.5C 146.414 78.1847 148.081 74.5181 149 70.5C 151.794 66.3987 155.294 65.5654 159.5 68C 154.192 70.6414 150.192 74.6414 147.5 80C 149.81 80.4966 152.143 80.6633 154.5 80.5z" stroke="none" fill="#1B1B1B" fill-rule="nonzero" />
	</g>
	<g>
        <path d="M154.5 80.5C 156.693 79.2031 159.027 79.2031 161.5 80.5C 161.043 81.2975 160.376 81.6309 159.5 81.5C 158.081 80.5489 156.415 80.2155 154.5 80.5z" stroke="none" fill="#6C6C6C" fill-rule="nonzero" />
	</g>
	<g>
        <path d="M45.5 79.5C 45.8383 83.1507 44.1716 84.8174 40.5 84.5C 37.9558 83.2921 36.6225 81.2921 36.5 78.5C 39.6085 78.2641 42.6085 78.5975 45.5 79.5z" stroke="none" fill="#66953D" fill-rule="nonzero" />
	</g>
	<g>
        <path d="M189.5 80.5C 190.833 80.5 192.167 80.5 193.5 80.5C 194.292 86.7935 192.292 91.9602 187.5 96C 185.866 96.4935 184.199 96.6602 182.5 96.5C 182.108 89.9522 184.442 84.6188 189.5 80.5z" stroke="none" fill="#EEEEEF" fill-rule="nonzero" />
	</g>
	<g>
        <path d="M362.5 80.5C 363.833 80.5 365.167 80.5 366.5 80.5C 365.077 88.7632 360.244 94.0965 352 96.5C 351.5 96.3333 351 96.1667 350.5 96C 353.63 90.0516 357.63 84.8849 362.5 80.5z" stroke="none" fill="#EBEBEB" fill-rule="nonzero" />
	</g>
	<g>
        <path d="M220.5 95.5C 221.167 96.1667 221.833 96.8333 222.5 97.5C 220.278 97.822 218.444 97.1554 217 95.5C 216.667 93.1667 216.333 90.8333 216 88.5C 214.27 93.0643 211.104 96.0643 206.5 97.5C 204.971 97.4712 203.804 96.8045 203 95.5C 202.809 93.2922 202.309 91.2922 201.5 89.5C 203.824 86.1957 206.157 82.8624 208.5 79.5C 209.833 78.1667 211.167 78.1667 212.5 79.5C 208.227 84.0463 205.56 89.3796 204.5 95.5C 205.873 95.6567 207.207 95.49 208.5 95C 212.675 91.472 216.008 87.3053 218.5 82.5C 219.689 81.5713 221.022 81.238 222.5 81.5C 221.951 83.9013 221.118 86.2346 220 88.5C 219.204 91.0385 219.371 93.3718 220.5 95.5z" stroke="none" fill="#161616" fill-rule="nonzero" />
	</g>
	<g>
        <path d="M457.5 85.5C 451.304 86.377 449.97 84.377 453.5 79.5C 456.728 78.5863 460.061 78.2529 463.5 78.5C 462.29 81.3866 460.29 83.72 457.5 85.5z" stroke="none" fill="#799B53" fill-rule="nonzero" />
	</g>
	<g>
        <path d="M443.5 75.5C 444.482 76.1408 445.482 76.8075 446.5 77.5C 447.107 77.3764 447.44 77.0431 447.5 76.5C 449.059 78.2501 451.059 79.2501 453.5 79.5C 449.97 84.377 451.304 86.377 457.5 85.5C 455.414 88.6785 455.08 92.0118 456.5 95.5C 453.401 96.9292 451.401 99.2625 450.5 102.5C 450.5 101.167 449.833 100.5 448.5 100.5C 446.54 99.1934 444.54 97.8601 442.5 96.5C 439.313 96.0384 436.646 94.5384 434.5 92C 433.207 91.51 431.873 91.3433 430.5 91.5C 430.682 89.3254 431.349 87.3254 432.5 85.5C 432.457 84.5836 432.124 83.9169 431.5 83.5C 431.5 83.1667 431.5 82.8333 431.5 82.5C 432.167 82.5 432.5 82.1667 432.5 81.5C 435.247 80.0343 438.247 79.2009 441.5 79C 442.823 78.1841 443.489 77.0174 443.5 75.5z" stroke="none" fill="#EFB9B2" fill-rule="nonzero" />
	</g>
	<g>
        <path d="M85.5 74.5C 90.4943 74.329 92.3276 76.6624 91 81.5C 87.2202 87.2825 82.2202 91.6158 76 94.5C 75.5 94.1667 75 93.8333 74.5 93.5C 77.9258 86.9756 81.5925 80.6423 85.5 74.5z" stroke="none" fill="#7F877C" fill-rule="nonzero" />
	</g>
	<g>
        <path d="M262.5 83.5C 262.573 85.0269 261.906 86.0269 260.5 86.5C 260.427 84.9731 261.094 83.9731 262.5 83.5z" stroke="none" fill="#3F3F3F" fill-rule="nonzero" />
	</g>
	<g>
        <path d="M409.5 75.5C 411.582 75.472 413.416 76.1387 415 77.5C 418.088 82.6748 420.921 88.0082 423.5 93.5C 421.813 94.568 420.146 94.4014 418.5 93C 413.338 89.8457 409.672 85.5123 407.5 80C 407.519 78.167 408.185 76.667 409.5 75.5z" stroke="none" fill="#80877A" fill-rule="nonzero" />
	</g>
	<g>
        <path d="M440.5 86.5C 442.167 86.5 443.833 86.5 445.5 86.5C 446.169 90.6759 444.669 92.0093 441 90.5C 440.51 89.2068 440.343 87.8734 440.5 86.5z" stroke="none" fill="#431716" fill-rule="nonzero" />
	</g>
	<g>
        <path d="M55.5 74.5C 59.3968 76.4663 63.0635 78.7997 66.5 81.5C 66.5 82.1667 66.5 82.8333 66.5 83.5C 66.0766 84.2646 65.7432 85.0979 65.5 86C 66.7073 87.3002 67.3739 88.8002 67.5 90.5C 60.3454 92.9827 53.6787 96.316 47.5 100.5C 46.6229 98.2722 45.2896 96.2722 43.5 94.5C 44.1422 90.5251 43.1422 87.1918 40.5 84.5C 44.1716 84.8174 45.8383 83.1507 45.5 79.5C 47.7151 78.4677 49.7151 77.1344 51.5 75.5C 51.369 76.2389 51.5357 76.9056 52 77.5C 53.0391 76.2899 54.2058 75.2899 55.5 74.5z" stroke="none" fill="#EEB9B2" fill-rule="nonzero" />
	</g>
	<g>
        <path d="M53.5 85.5C 57.6759 84.8307 59.0093 86.3307 57.5 90C 56.2068 90.49 54.8734 90.6567 53.5 90.5C 53.5 88.8333 53.5 87.1667 53.5 85.5z" stroke="none" fill="#4B1919" fill-rule="nonzero" />
	</g>
	<g>
        <path d="M281.5 85.5C 292.081 89.5775 292.081 93.9108 281.5 98.5C 278.876 95.7434 277.543 96.41 277.5 100.5C 282.764 100.413 287.431 98.7459 291.5 95.5C 294.31 93.822 296.643 94.1553 298.5 96.5C 298.517 98.0281 299.184 98.5281 300.5 98C 304.121 94.5592 307.121 90.7259 309.5 86.5C 310.833 85.8333 311.833 84.8333 312.5 83.5C 313.847 82.9717 315.181 82.805 316.5 83C 313.178 87.2678 312.178 91.9345 313.5 97C 319.102 97.4515 323.602 95.2848 327 90.5C 327.132 96.9541 330.298 99.1208 336.5 97C 338.634 93.5222 341.634 92.6889 345.5 94.5C 346.492 94.3284 347.158 94.6618 347.5 95.5C 345.112 103.273 342.446 110.94 339.5 118.5C 341.39 118.703 342.89 118.037 344 116.5C 344.928 110.217 346.761 104.217 349.5 98.5C 354.589 97.9529 359.255 96.2863 363.5 93.5C 375.375 93.3319 386.708 93.6652 397.5 94.5C 398.666 105.819 398.832 117.152 398 128.5C 393.922 129.009 391.922 131.342 392 135.5C 391.439 136.022 390.772 136.355 390 136.5C 297.214 135.504 204.547 135.17 112 135.5C 110.632 133.973 110.132 132.473 110.5 131C 203.668 130.833 296.668 130.333 389.5 129.5C 390.043 129.44 390.376 129.107 390.5 128.5C 297.001 127.168 203.668 127.168 110.5 128.5C 108.83 130.925 106.83 131.091 104.5 129C 104.957 128.586 105.291 128.086 105.5 127.5C 104.833 119.5 104.167 111.5 103.5 103.5C 104.332 100.839 105.166 98.1724 106 95.5C 111.841 93.9459 117.841 93.2793 124 93.5C 128.68 93.5009 133.18 93.8342 137.5 94.5C 137.5 95.8333 137.5 97.1667 137.5 98.5C 140.812 98.851 143.145 97.5177 144.5 94.5C 150.744 93.5422 157.077 93.2088 163.5 93.5C 164.828 97.254 167.494 98.4207 171.5 97C 174.295 95.2068 176.795 93.0402 179 90.5C 179.333 92.1667 179.667 93.8333 180 95.5C 184.569 98.5608 188.569 97.8941 192 93.5C 196.539 95.3119 199.705 93.9786 201.5 89.5C 202.309 91.2922 202.809 93.2922 203 95.5C 203.804 96.8045 204.971 97.4712 206.5 97.5C 211.104 96.0643 214.27 93.0643 216 88.5C 216.333 90.8333 216.667 93.1667 217 95.5C 218.444 97.1554 220.278 97.822 222.5 97.5C 224.332 96.7515 225.999 95.7515 227.5 94.5C 230.5 94.5 233.5 94.5 236.5 94.5C 237.316 96.1436 238.65 97.3103 240.5 98C 249.358 98.0683 256.025 94.235 260.5 86.5C 261.906 86.0269 262.573 85.0269 262.5 83.5C 263.756 81.6561 265.423 80.3228 267.5 79.5C 269.208 79.7028 270.541 80.5362 271.5 82C 268.639 84.894 266.139 88.0607 264 91.5C 262.607 95.2017 263.774 97.2017 267.5 97.5C 273.692 95.3104 278.358 91.3104 281.5 85.5z" stroke="none" fill="#F4F8FB" fill-rule="nonzero" />
	</g>
	<g>
        <path d="M300.5 86.5C 300.489 88.6859 299.489 89.5192 297.5 89C 298.373 87.955 299.373 87.1217 300.5 86.5z" stroke="none" fill="#666666" fill-rule="nonzero" />
	</g>
	<g>
        <path d="M312.5 83.5C 311.833 84.8333 310.833 85.8333 309.5 86.5C 309.5 84.5 310.5 83.5 312.5 83.5z" stroke="none" fill="#2B2B2B" fill-rule="nonzero" />
	</g>
	<g>
        <path d="M456.5 95.5C 457.105 99.8874 455.771 103.554 452.5 106.5C 451.726 107.711 450.893 107.711 450 106.5C 449.421 105.072 449.588 103.738 450.5 102.5C 451.401 99.2625 453.401 96.9292 456.5 95.5z" stroke="none" fill="#835933" fill-rule="nonzero" />
	</g>
	<g>
        <path d="M43.5 94.5C 45.2896 96.2722 46.6229 98.2722 47.5 100.5C 49.1511 102.402 49.4845 104.402 48.5 106.5C 47.5041 106.586 46.6708 106.252 46 105.5C 45 103.5 44 101.5 43 99.5C 42.2204 97.6131 42.3871 95.9464 43.5 94.5z" stroke="none" fill="#805224" fill-rule="nonzero" />
	</g>
	<g>
        <path d="M66.5 83.5C 67.8333 85.1667 69.1667 86.8333 70.5 88.5C 69.9332 90.0295 69.2666 91.5295 68.5 93C 64.6004 94.2612 60.7671 95.7612 57 97.5C 56.5671 102.272 58.4005 105.939 62.5 108.5C 62.5 111.167 62.5 113.833 62.5 116.5C 62.6107 117.117 62.944 117.617 63.5 118C 61.563 118.122 60.2297 118.955 59.5 120.5C 57.5635 119.046 55.8968 117.379 54.5 115.5C 53.865 114.541 53.865 113.208 54.5 111.5C 51.6061 110.744 49.6061 109.077 48.5 106.5C 49.4845 104.402 49.1511 102.402 47.5 100.5C 53.6787 96.316 60.3454 92.9827 67.5 90.5C 67.3739 88.8002 66.7073 87.3002 65.5 86C 65.7432 85.0979 66.0766 84.2646 66.5 83.5z" stroke="none" fill="#E5E0E0" fill-rule="nonzero" />
	</g>
	<g>
        <path d="M69.5 107.5C 71.2798 108.99 71.9465 110.99 71.5 113.5C 66.0046 117.132 63.5046 115.798 64 109.5C 65.4443 107.845 67.2776 107.178 69.5 107.5z" stroke="none" fill="#F0CE30" fill-rule="nonzero" />
	</g>
	<g>
        <path d="M65.5 116.5C 67.5 116.5 69.5 116.5 71.5 116.5C 71.5 115.5 71.5 114.5 71.5 113.5C 71.9465 110.99 71.2798 108.99 69.5 107.5C 69.5 107.167 69.5 106.833 69.5 106.5C 72.0694 107.42 74.4027 106.753 76.5 104.5C 77.4519 102.955 77.7852 101.288 77.5 99.5C 79.4835 99.3832 81.1502 100.05 82.5 101.5C 83.205 104.089 83.205 106.756 82.5 109.5C 83.5 109.5 84.5 109.5 85.5 109.5C 85.5792 110.93 85.2458 112.264 84.5 113.5C 80.8806 114.316 77.5472 115.65 74.5 117.5C 74.8493 123.146 73.3493 123.813 70 119.5C 68.0972 121.441 67.2639 123.774 67.5 126.5C 66.5 126.5 65.5 126.5 64.5 126.5C 64.3424 123.098 64.6758 119.764 65.5 116.5z" stroke="none" fill="#DFE1E4" fill-rule="nonzero" />
	</g>
	<g>
        <path d="M32.5 111.5C 33.5 111.5 34.5 111.5 35.5 111.5C 35.9583 115.917 34.2917 119.25 30.5 121.5C 29.0175 117.727 29.6842 114.393 32.5 111.5z" stroke="none" fill="#6D9151" fill-rule="nonzero" />
	</g>
	<g>
        <path d="M69.5 106.5C 69.5 106.833 69.5 107.167 69.5 107.5C 67.2776 107.178 65.4443 107.845 64 109.5C 63.5046 115.798 66.0046 117.132 71.5 113.5C 71.5 114.5 71.5 115.5 71.5 116.5C 69.5 116.5 67.5 116.5 65.5 116.5C 64.5 116.5 63.5 116.5 62.5 116.5C 62.5 113.833 62.5 111.167 62.5 108.5C 64.4786 106.832 66.812 106.166 69.5 106.5z" stroke="none" fill="#E5DEB1" fill-rule="nonzero" />
	</g>
	<g>
        <path d="M463.5 111.5C 468.677 113.522 470.343 117.189 468.5 122.5C 464.407 119.978 462.74 116.311 463.5 111.5z" stroke="none" fill="#6D934C" fill-rule="nonzero" />
	</g>
	<g>
        <path d="M442.5 96.5C 444.54 97.8601 446.54 99.1934 448.5 100.5C 447.325 100.281 446.325 100.614 445.5 101.5C 447.455 103.861 448.288 106.528 448 109.5C 446.491 110.09 444.991 110.756 443.5 111.5C 444.167 112.5 444.833 113.5 445.5 114.5C 444.398 115.176 443.398 115.842 442.5 116.5C 438.186 121.67 436.852 127.67 438.5 134.5C 441.807 135.051 445.14 135.384 448.5 135.5C 448.5 137.5 448.5 139.5 448.5 141.5C 447.835 143.698 447.168 146.031 446.5 148.5C 442.946 145.663 440.946 146.663 440.5 151.5C 440.027 146.595 437.361 144.595 432.5 145.5C 432.451 141.922 431.785 138.589 430.5 135.5C 430.82 132.102 430.487 128.768 429.5 125.5C 428.914 125.709 428.414 126.043 428 126.5C 428.353 132.799 425.853 137.466 420.5 140.5C 419.596 139.791 419.263 138.791 419.5 137.5C 419.329 134.203 419.995 133.869 421.5 136.5C 422.711 135.726 422.711 134.893 421.5 134C 422.549 133.508 423.549 133.674 424.5 134.5C 426.013 132.465 426.679 130.131 426.5 127.5C 423.426 123.495 424.093 120.328 428.5 118C 423.407 118.115 418.74 116.782 414.5 114C 413.663 112.989 413.33 111.822 413.5 110.5C 414.5 110.5 415.5 110.5 416.5 110.5C 416.037 107.518 415.704 104.518 415.5 101.5C 417.5 101.167 419.5 100.833 421.5 100.5C 421.5 102.167 421.5 103.833 421.5 105.5C 424.025 106.64 426.692 107.307 429.5 107.5C 429.167 108.167 428.833 108.833 428.5 109.5C 426.568 113.274 427.735 115.607 432 116.5C 433.434 116.138 434.601 115.472 435.5 114.5C 436.451 113.081 436.784 111.415 436.5 109.5C 440.35 106.128 442.35 101.795 442.5 96.5z" stroke="none" fill="#DFDEDC" fill-rule="nonzero" />
	</g>
	<g>
        <path d="M435.5 114.5C 434.601 115.472 433.434 116.138 432 116.5C 427.735 115.607 426.568 113.274 428.5 109.5C 433.286 107.611 435.619 109.278 435.5 114.5z" stroke="none" fill="#EECF32" fill-rule="nonzero" />
	</g>
	<g>
        <path d="M429.5 107.5C 432.188 107.166 434.521 107.832 436.5 109.5C 436.784 111.415 436.451 113.081 435.5 114.5C 435.619 109.278 433.286 107.611 428.5 109.5C 428.833 108.833 429.167 108.167 429.5 107.5z" stroke="none" fill="#E9D67B" fill-rule="nonzero" />
	</g>
	<g>
        <path d="M389.5 129.5C 296.332 129.833 203.332 129.499 110.5 128.5C 203.668 127.168 297.001 127.168 390.5 128.5C 390.376 129.107 390.043 129.44 389.5 129.5z" stroke="none" fill="#B1B6BC" fill-rule="nonzero" />
	</g>
	<g>
        <path d="M430.5 135.5C 428.807 138.19 426.473 140.19 423.5 141.5C 422.209 141.737 421.209 141.404 420.5 140.5C 425.853 137.466 428.353 132.799 428 126.5C 428.414 126.043 428.914 125.709 429.5 125.5C 430.487 128.768 430.82 132.102 430.5 135.5z" stroke="none" fill="#7D4F24" fill-rule="nonzero" />
	</g>
	<g>
        <path d="M80.5 139.5C 80.8333 140.5 81.5 141.167 82.5 141.5C 84.8485 143.341 87.5152 144.674 90.5 145.5C 90.8333 146.167 91.1667 146.833 91.5 147.5C 91.5 148.167 91.1667 148.5 90.5 148.5C 86.7387 146.462 82.7387 144.796 78.5 143.5C 77.5637 142.026 76.2303 141.026 74.5 140.5C 67.6128 136.739 65.9461 131.406 69.5 124.5C 70.086 124.709 70.586 125.043 71 125.5C 70.4544 132.773 73.621 137.44 80.5 139.5z" stroke="none" fill="#805732" fill-rule="nonzero" />
	</g>
	<g>
        <path d="M54.5 115.5C 55.8968 117.379 57.5635 119.046 59.5 120.5C 59.5382 123.621 60.2048 126.621 61.5 129.5C 61.5635 131.514 60.8968 133.181 59.5 134.5C 55.0965 135.683 50.7632 137.016 46.5 138.5C 37.7817 137.405 34.4483 132.405 36.5 123.5C 37.9778 123.762 39.3112 123.429 40.5 122.5C 39.1667 120.833 39.1667 119.167 40.5 117.5C 43 116.5 45.5 115.5 48 114.5C 50.137 115.077 52.3037 115.41 54.5 115.5z" stroke="none" fill="#F3BCB5" fill-rule="nonzero" />
	</g>
	<g>
        <path d="M47.5 124.5C 51.35 124.701 52.35 126.534 50.5 130C 46.5369 130.118 45.5369 128.284 47.5 124.5z" stroke="none" fill="#53211F" fill-rule="nonzero" />
	</g>
	<g>
        <path d="M442.5 116.5C 447.566 116.34 452.566 116.84 457.5 118C 458.885 121.27 460.885 124.103 463.5 126.5C 462.833 129.5 462.167 132.5 461.5 135.5C 457.806 138.842 453.473 140.842 448.5 141.5C 448.5 139.5 448.5 137.5 448.5 135.5C 445.14 135.384 441.807 135.051 438.5 134.5C 436.852 127.67 438.186 121.67 442.5 116.5z" stroke="none" fill="#F2BAB4" fill-rule="nonzero" />
	</g>
	<g>
        <path d="M447.5 125.5C 451.138 124.737 452.638 126.07 452 129.5C 447.415 131.413 445.915 130.079 447.5 125.5z" stroke="none" fill="#4E1C1C" fill-rule="nonzero" />
	</g>
	<g>
        <path d="M82.5 141.5C 81.5 141.167 80.8333 140.5 80.5 139.5C 80.2978 137.011 80.7978 134.677 82 132.5C 83.0113 131.663 84.1779 131.33 85.5 131.5C 85.9784 135.338 84.9784 138.671 82.5 141.5z" stroke="none" fill="#689144" fill-rule="nonzero" />
	</g>
	<g>
        <path d="M438.5 139.5C 441.91 139.384 443.244 141.05 442.5 144.5C 438.065 145.078 436.732 143.411 438.5 139.5z" stroke="none" fill="#EBD24B" fill-rule="nonzero" />
	</g>
	<g>
        <path d="M419.5 137.5C 419.263 138.791 419.596 139.791 420.5 140.5C 421.209 141.404 422.209 141.737 423.5 141.5C 427.589 151.166 426.255 151.832 419.5 143.5C 419.196 141.204 418.196 140.871 416.5 142.5C 415.56 140.388 414.394 138.388 413 136.5C 412.116 134.359 412.616 132.693 414.5 131.5C 416.507 133.306 418.174 135.306 419.5 137.5z" stroke="none" fill="#708D49" fill-rule="nonzero" />
	</g>
	<g>
        <path d="M59.5 134.5C 58.0136 137.371 59.0136 138.705 62.5 138.5C 63.3645 146.368 60.3645 148.368 53.5 144.5C 54.3482 142.591 54.6816 140.591 54.5 138.5C 52.3254 138.682 50.3254 139.349 48.5 140.5C 47.2867 140.253 46.62 139.586 46.5 138.5C 50.7632 137.016 55.0965 135.683 59.5 134.5z" stroke="none" fill="#E6DCCE" fill-rule="nonzero" />
	</g>
	<g>
        <path d="M56.5 139.5C 58.1667 139.5 59.8333 139.5 61.5 139.5C 61.6162 142.91 59.9496 144.244 56.5 143.5C 56.5 142.167 56.5 140.833 56.5 139.5z" stroke="none" fill="#E7CE4B" fill-rule="nonzero" />
	</g>
	<g>
        <path d="M74.5 140.5C 76.2303 141.026 77.5637 142.026 78.5 143.5C 72.7623 150.269 71.429 149.269 74.5 140.5z" stroke="none" fill="#6B9146" fill-rule="nonzero" />
	</g>
	<g>
        <path d="M92.5 147.5C 92.1667 147.5 91.8333 147.5 91.5 147.5C 91.1667 146.833 90.8333 146.167 90.5 145.5C 92.4957 143.667 94.829 143.167 97.5 144C 98.8333 145 98.8333 146 97.5 147C 95.8659 147.494 94.1992 147.66 92.5 147.5z" stroke="none" fill="#688E46" fill-rule="nonzero" />
	</g>
	<g>
        <path d="M407.5 146.5C 407.167 147.167 406.833 147.833 406.5 148.5C 403.404 149.093 401.071 148.093 399.5 145.5C 400.667 145.167 401.833 144.833 403 144.5C 405.008 144.307 406.508 144.974 407.5 146.5z" stroke="none" fill="#669041" fill-rule="nonzero" />
	</g>
	<g>
        <path d="M419.5 143.5C 416.301 145.173 412.968 146.673 409.5 148C 408.748 148.671 408.414 149.504 408.5 150.5C 407.833 151.5 407.167 152.5 406.5 153.5C 406.5 151.833 406.5 150.167 406.5 148.5C 406.833 147.833 407.167 147.167 407.5 146.5C 410.352 144.909 413.352 143.576 416.5 142.5C 418.196 140.871 419.196 141.204 419.5 143.5z" stroke="none" fill="#7E603B" fill-rule="nonzero" />
	</g>
	<g>
        <path d="M91.5 147.5C 91.8333 147.5 92.1667 147.5 92.5 147.5C 92.6933 151.007 92.0267 154.34 90.5 157.5C 91.1882 158.855 92.1882 159.855 93.5 160.5C 92.4479 162.256 90.7812 162.923 88.5 162.5C 87.4489 161.778 86.7822 160.778 86.5 159.5C 87.8699 159.144 88.8699 158.31 89.5 157C 90.3479 154.23 90.6813 151.397 90.5 148.5C 91.1667 148.5 91.5 148.167 91.5 147.5z" stroke="none" fill="#9F796F" fill-rule="nonzero" />
	</g>
	<g>
        <path d="M108.5 163.5C 108.222 161.654 108.889 160.32 110.5 159.5C 112.16 162.798 113.827 166.131 115.5 169.5C 114.311 170.429 112.978 170.762 111.5 170.5C 111.5 169.5 111.5 168.5 111.5 167.5C 110.022 167.238 108.689 167.571 107.5 168.5C 107.709 169.086 108.043 169.586 108.5 170C 107.167 170.667 105.833 170.667 104.5 170C 105.933 167.827 107.266 165.66 108.5 163.5z" stroke="none" fill="#212121" fill-rule="nonzero" />
	</g>
	<g>
        <path d="M118.5 160.5C 120.966 159.366 123.633 159.199 126.5 160C 127.772 162.044 127.439 163.878 125.5 165.5C 126.128 167.258 127.128 168.758 128.5 170C 127.5 170.667 126.5 170.667 125.5 170C 122.384 164.426 121.384 164.426 122.5 170C 121.167 170.667 119.833 170.667 118.5 170C 119.818 166.731 119.818 163.565 118.5 160.5z" stroke="none" fill="#121212" fill-rule="nonzero" />
	</g>
	<g>
        <path d="M153.5 163.5C 151.997 172.567 149.831 172.567 147 163.5C 146.242 165.769 146.409 167.936 147.5 170C 146.167 170.667 144.833 170.667 143.5 170C 145.621 166.826 145.954 163.493 144.5 160C 145.944 159.219 147.277 159.386 148.5 160.5C 149.248 162.332 150.248 163.999 151.5 165.5C 152.182 164.757 152.849 164.091 153.5 163.5z" stroke="none" fill="#202020" fill-rule="nonzero" />
	</g>
	<g>
        <path d="M153.5 163.5C 153.167 160.5 154.5 159.167 157.5 159.5C 157.249 162.909 157.583 166.242 158.5 169.5C 154.895 171.218 153.895 170.385 155.5 167C 155.613 165.301 154.947 164.134 153.5 163.5z" stroke="none" fill="#141414" fill-rule="nonzero" />
	</g>
	<g>
        <path d="M163.5 165.5C 163.491 163.692 163.991 162.025 165 160.5C 165.667 159.167 166.333 159.167 167 160.5C 168.504 163.684 170.004 166.851 171.5 170C 170.207 170.49 168.873 170.657 167.5 170.5C 167.5 169.5 167.5 168.5 167.5 167.5C 166.167 167.5 164.833 167.5 163.5 167.5C 163.5 168.5 163.5 169.5 163.5 170.5C 162.448 170.649 161.448 170.483 160.5 170C 161.399 168.348 162.399 166.848 163.5 165.5z" stroke="none" fill="#1A1A1A" fill-rule="nonzero" />
	</g>
	<g>
        <path d="M173.5 159.5C 176.833 159.5 180.167 159.5 183.5 159.5C 183.738 163.099 182.738 163.433 180.5 160.5C 180.167 162 179.833 163.5 179.5 165C 179.629 166.981 180.296 168.647 181.5 170C 179.5 170.667 177.5 170.667 175.5 170C 176.704 168.647 177.371 166.981 177.5 165C 177.702 160.826 176.535 159.992 174 162.5C 173.517 161.552 173.351 160.552 173.5 159.5z" stroke="none" fill="#101010" fill-rule="nonzero" />
	</g>
	<g>
        <path d="M186.5 159.5C 187.873 159.343 189.207 159.51 190.5 160C 189.167 163.333 189.167 166.667 190.5 170C 188.833 170.667 187.167 170.667 185.5 170C 186.456 166.606 186.789 163.106 186.5 159.5z" stroke="none" fill="#1A1A1A" fill-rule="nonzero" />
	</g>
	<g>
        <path d="M193.5 159.5C 196.187 159.336 198.854 159.503 201.5 160C 199.959 162.916 198.293 165.749 196.5 168.5C 198.259 169.754 199.759 169.421 201 167.5C 201.483 168.448 201.649 169.448 201.5 170.5C 198.833 170.5 196.167 170.5 193.5 170.5C 194.524 167.445 195.857 164.445 197.5 161.5C 196.132 160.406 194.965 160.74 194 162.5C 193.517 161.552 193.351 160.552 193.5 159.5z" stroke="none" fill="#171717" fill-rule="nonzero" />
	</g>
	<g>
        <path d="M206.5 165.5C 206.491 163.692 206.991 162.025 208 160.5C 208.667 159.167 209.333 159.167 210 160.5C 211.504 163.684 213.004 166.851 214.5 170C 213.207 170.49 211.873 170.657 210.5 170.5C 210.5 169.5 210.5 168.5 210.5 167.5C 209.167 167.5 207.833 167.5 206.5 167.5C 206.5 168.5 206.5 169.5 206.5 170.5C 205.448 170.649 204.448 170.483 203.5 170C 204.399 168.348 205.399 166.848 206.5 165.5z" stroke="none" fill="#1A1A1A" fill-rule="nonzero" />
	</g>
	<g>
        <path d="M217.5 160.5C 218.251 159.427 219.251 159.26 220.5 160C 221.88 161.925 223.38 163.759 225 165.5C 225.743 163.559 225.576 161.726 224.5 160C 225.5 159.333 226.5 159.333 227.5 160C 226.867 163.459 226.2 166.959 225.5 170.5C 223.476 168.31 221.643 165.977 220 163.5C 219.242 165.769 219.409 167.936 220.5 170C 219.167 170.667 217.833 170.667 216.5 170C 218.693 166.962 219.027 163.796 217.5 160.5z" stroke="none" fill="#161616" fill-rule="nonzero" />
	</g>
	<g>
        <path d="M230.5 159.5C 233.5 159.5 236.5 159.5 239.5 159.5C 239.649 160.552 239.483 161.552 239 162.5C 238.29 161.027 237.124 160.36 235.5 160.5C 234.994 164.007 235.66 167.174 237.5 170C 235.5 170.667 233.5 170.667 231.5 170C 232.704 168.647 233.371 166.981 233.5 165C 233.167 163.5 232.833 162 232.5 160.5C 231.056 161.981 230.389 161.648 230.5 159.5z" stroke="none" fill="#0A0A0A" fill-rule="nonzero" />
	</g>
	<g>
        <path d="M242.5 159.5C 244.924 159.192 247.257 159.526 249.5 160.5C 248.443 160.906 247.109 160.906 245.5 160.5C 245.238 161.978 245.571 163.311 246.5 164.5C 248.366 163.437 248.866 164.104 248 166.5C 247.586 166.043 247.086 165.709 246.5 165.5C 245.571 166.689 245.238 168.022 245.5 169.5C 247.39 169.703 248.89 169.037 250 167.5C 250.483 168.448 250.649 169.448 250.5 170.5C 247.482 170.665 244.482 170.498 241.5 170C 242.456 166.606 242.789 163.106 242.5 159.5z" stroke="none" fill="#181818" fill-rule="nonzero" />
	</g>
	<g>
        <path d="M268.5 159.5C 271.119 159.232 273.619 159.565 276 160.5C 277.568 164.917 276.068 166.917 271.5 166.5C 271.36 168.124 272.027 169.29 273.5 170C 271.5 170.667 269.5 170.667 267.5 170C 268.456 166.606 268.789 163.106 268.5 159.5z" stroke="none" fill="#1A1A1A" fill-rule="nonzero" />
	</g>
	<g>
        <path d="M282.5 163.5C 282.222 161.654 282.889 160.32 284.5 159.5C 286.16 162.798 287.827 166.131 289.5 169.5C 288.311 170.429 286.978 170.762 285.5 170.5C 285.5 169.5 285.5 168.5 285.5 167.5C 284.022 167.238 282.689 167.571 281.5 168.5C 281.709 169.086 282.043 169.586 282.5 170C 281.167 170.667 279.833 170.667 278.5 170C 279.933 167.827 281.266 165.66 282.5 163.5z" stroke="none" fill="#202020" fill-rule="nonzero" />
	</g>
	<g>
        <path d="M306.5 167.5C 306.402 165.447 307.069 163.78 308.5 162.5C 308.354 160.058 309.187 159.391 311 160.5C 312.099 163.864 313.599 167.03 315.5 170C 313.833 170.667 312.167 170.667 310.5 170C 310.957 169.586 311.291 169.086 311.5 168.5C 309.955 167.548 308.288 167.215 306.5 167.5z" stroke="none" fill="#181818" fill-rule="nonzero" />
	</g>
	<g>
        <path d="M321.5 159.5C 324.833 159.5 328.167 159.5 331.5 159.5C 331.738 163.099 330.738 163.433 328.5 160.5C 328.167 162 327.833 163.5 327.5 165C 327.629 166.981 328.296 168.647 329.5 170C 327.5 170.667 325.5 170.667 323.5 170C 324.704 168.647 325.371 166.981 325.5 165C 325.702 160.826 324.535 159.992 322 162.5C 321.517 161.552 321.351 160.552 321.5 159.5z" stroke="none" fill="#101010" fill-rule="nonzero" />
	</g>
	<g>
        <path d="M333.5 160.5C 334.946 159.387 336.613 159.22 338.5 160C 337.39 162.737 337.223 165.571 338 168.5C 339 169.833 340 169.833 341 168.5C 341.777 165.571 341.61 162.737 340.5 160C 341.5 159.333 342.5 159.333 343.5 160C 342.833 163.333 342.167 166.667 341.5 170C 338.975 170.896 336.808 170.396 335 168.5C 334.817 165.635 334.317 162.969 333.5 160.5z" stroke="none" fill="#1E1E1E" fill-rule="nonzero" />
	</g>
	<g>
        <path d="M363.5 160.5C 364.601 159.402 365.934 159.235 367.5 160C 366.167 163.333 366.167 166.667 367.5 170C 366.167 170.667 364.833 170.667 363.5 170C 364.818 166.731 364.818 163.565 363.5 160.5z" stroke="none" fill="#000000" fill-rule="nonzero" />
	</g>
	<g>
        <path d="M45.5 164.5C 45.5 163.5 45.5 162.5 45.5 161.5C 44.1667 161.5 42.8333 161.5 41.5 161.5C 43.6002 159.727 45.9335 159.394 48.5 160.5C 47.9649 162.261 46.9649 163.594 45.5 164.5z" stroke="none" fill="#6F8A63" fill-rule="nonzero" />
	</g>
	<g>
        <path d="M121.5 160.5C 122.5 160.5 123.5 160.5 124.5 160.5C 124.5 161.833 124.5 163.167 124.5 164.5C 123.5 164.5 122.5 164.5 121.5 164.5C 121.5 163.167 121.5 161.833 121.5 160.5z" stroke="none" fill="#DEDEDE" fill-rule="nonzero" />
	</g>
	<g>
        <path d="M254.5 159.5C 256.5 159.5 258.5 159.5 260.5 159.5C 260.351 163.123 259.184 163.457 257 160.5C 256.5 160.833 256 161.167 255.5 161.5C 257.029 163.188 258.863 164.521 261 165.5C 261.588 168.588 260.255 170.255 257 170.5C 254.544 170.713 253.544 169.713 254 167.5C 255.11 169.037 256.61 169.703 258.5 169.5C 258.17 166.891 256.67 165.224 254 164.5C 253.36 162.735 253.527 161.068 254.5 159.5z" stroke="none" fill="#1C1C1C" fill-rule="nonzero" />
	</g>
	<g>
        <path d="M271.5 160.5C 274.956 161.536 275.29 163.203 272.5 165.5C 271.548 163.955 271.215 162.288 271.5 160.5z" stroke="none" fill="#EFEFEF" fill-rule="nonzero" />
	</g>
	<g>
        <path d="M292.5 160.5C 295.23 159.183 298.063 159.183 301 160.5C 301.684 162.479 301.184 164.146 299.5 165.5C 300.624 166.914 301.624 168.414 302.5 170C 301.5 170.667 300.5 170.667 299.5 170C 297.332 165.301 296.332 165.468 296.5 170.5C 295.127 170.657 293.793 170.49 292.5 170C 293.818 166.731 293.818 163.565 292.5 160.5z" stroke="none" fill="#1A1A1A" fill-rule="nonzero" />
	</g>
	<g>
        <path d="M295.5 160.5C 296.5 160.5 297.5 160.5 298.5 160.5C 298.5 161.833 298.5 163.167 298.5 164.5C 297.5 164.5 296.5 164.5 295.5 164.5C 295.5 163.167 295.5 161.833 295.5 160.5z" stroke="none" fill="#D4D4D4" fill-rule="nonzero" />
	</g>
	<g>
        <path d="M370.5 160.5C 373.365 159.217 376.365 159.217 379.5 160.5C 382.199 163.903 381.866 167.07 378.5 170C 375.833 170.667 373.167 170.667 370.5 170C 371.818 166.731 371.818 163.565 370.5 160.5z" stroke="none" fill="#1C1C1C" fill-rule="nonzero" />
	</g>
	<g>
        <path d="M373.5 160.5C 378.213 160.468 379.713 162.801 378 167.5C 376.921 169.394 375.587 169.727 374 168.5C 373.503 165.854 373.336 163.187 373.5 160.5z" stroke="none" fill="#D7D7D7" fill-rule="nonzero" />
	</g>
	<g>
        <path d="M387.5 159.5C 388.376 159.369 389.043 159.702 389.5 160.5C 391.054 163.777 392.721 166.944 394.5 170C 392.833 170.667 391.167 170.667 389.5 170C 390.741 168.513 390.241 167.68 388 167.5C 385.759 167.68 385.259 168.513 386.5 170C 385.365 170.749 384.365 170.583 383.5 169.5C 385.036 166.222 386.369 162.889 387.5 159.5z" stroke="none" fill="#1A1A1A" fill-rule="nonzero" />
	</g>
	<g>
        <path d="M408.5 150.5C 407.75 154.775 409.083 158.109 412.5 160.5C 412.218 161.778 411.551 162.778 410.5 163.5C 408.597 163.204 406.93 162.537 405.5 161.5C 406.23 160.288 407.23 159.288 408.5 158.5C 407.826 156.805 407.159 155.138 406.5 153.5C 407.167 152.5 407.833 151.5 408.5 150.5z" stroke="none" fill="#A17A73" fill-rule="nonzero" />
	</g>
	<g>
        <path d="M132.5 159.5C 141.865 158.936 143.865 162.436 138.5 170C 130.48 170.135 128.48 166.635 132.5 159.5z" stroke="none" fill="#1E1E1E" fill-rule="nonzero" />
	</g>
	<g>
        <path d="M134.5 160.5C 135.822 160.33 136.989 160.663 138 161.5C 138.667 163.833 138.667 166.167 138 168.5C 136.667 169.833 135.333 169.833 134 168.5C 133.278 165.739 133.445 163.073 134.5 160.5z" stroke="none" fill="#EEEEEE" fill-rule="nonzero" />
	</g>
	<g>
        <path d="M108.5 163.5C 110.465 163.948 110.798 164.948 109.5 166.5C 108.614 165.675 108.281 164.675 108.5 163.5z" stroke="none" fill="#D6D6D6" fill-rule="nonzero" />
	</g>
	<g>
        <path d="M282.5 163.5C 284.465 163.948 284.798 164.948 283.5 166.5C 282.614 165.675 282.281 164.675 282.5 163.5z" stroke="none" fill="#D6D6D6" fill-rule="nonzero" />
	</g>
	<g>
        <path d="M350.5 160.5C 351.568 159.566 352.901 159.232 354.5 159.5C 354.523 161.927 355.023 164.26 356 166.5C 357.796 164.486 358.296 162.319 357.5 160C 358.635 159.251 359.635 159.417 360.5 160.5C 359.211 164.044 357.544 167.377 355.5 170.5C 353.816 167.073 352.149 163.739 350.5 160.5z" stroke="none" fill="#282828" fill-rule="nonzero" />
	</g>
	<g>
        <path d="M41.5 161.5C 42.8333 161.5 44.1667 161.5 45.5 161.5C 45.5 162.5 45.5 163.5 45.5 164.5C 43.5468 167.978 40.5468 169.645 36.5 169.5C 36.5003 165.825 38.167 163.159 41.5 161.5z" stroke="none" fill="#65903E" fill-rule="nonzero" />
	</g>
	<g>
        <path d="M93.5 160.5C 94.2679 161.263 94.7679 162.263 95 163.5C 95.4983 166.817 95.665 170.15 95.5 173.5C 92.5 173.5 89.5 173.5 86.5 173.5C 86.3893 172.883 86.056 172.383 85.5 172C 89.4994 169.916 90.4994 166.749 88.5 162.5C 90.7812 162.923 92.4479 162.256 93.5 160.5z" stroke="none" fill="#EDA99B" fill-rule="nonzero" />
	</g>
	<g>
        <path d="M163.5 165.5C 165.306 162.662 166.306 162.995 166.5 166.5C 165.209 166.737 164.209 166.404 163.5 165.5z" stroke="none" fill="#C9C9C9" fill-rule="nonzero" />
	</g>
	<g>
        <path d="M206.5 165.5C 208.306 162.662 209.306 162.995 209.5 166.5C 208.209 166.737 207.209 166.404 206.5 165.5z" stroke="none" fill="#C9C9C9" fill-rule="nonzero" />
	</g>
	<g>
        <path d="M308.5 162.5C 311.383 164.982 311.05 166.149 307.5 166C 308.337 164.989 308.67 163.822 308.5 162.5z" stroke="none" fill="#D0D0D0" fill-rule="nonzero" />
	</g>
	<g>
        <path d="M387.5 163.5C 390.481 166.122 390.148 166.789 386.5 165.5C 386.863 164.817 387.196 164.15 387.5 163.5z" stroke="none" fill="#D3D3D3" fill-rule="nonzero" />
	</g>
	<g>
        <path d="M405.5 161.5C 406.93 162.537 408.597 163.204 410.5 163.5C 409.586 166.728 409.253 170.061 409.5 173.5C 407.5 173.5 405.5 173.5 403.5 173.5C 403.5 171.167 403.5 168.833 403.5 166.5C 403.796 164.597 404.463 162.93 405.5 161.5z" stroke="none" fill="#EFA898" fill-rule="nonzero" />
	</g>
	<g>
        <path d="M450.5 160.5C 457.289 160.631 461.289 163.965 462.5 170.5C 456.085 169.971 452.085 166.638 450.5 160.5z" stroke="none" fill="#698F45" fill-rule="nonzero" />
	</g>
	<g>
        <path d="M86.5 159.5C 86.7822 160.778 87.4489 161.778 88.5 162.5C 90.4994 166.749 89.4994 169.916 85.5 172C 86.056 172.383 86.3893 172.883 86.5 173.5C 85.1667 173.5 83.8333 173.5 82.5 173.5C 81.7397 168.094 83.0731 163.427 86.5 159.5z" stroke="none" fill="#F1C6BA" fill-rule="nonzero" />
	</g>
	<g>
        <path d="M306.5 167.5C 306.414 168.496 306.748 169.329 307.5 170C 303.956 170.679 303.623 169.846 306.5 167.5z" stroke="none" fill="#0A0A0A" fill-rule="nonzero" />
	</g>
	<g>
        <path d="M412.5 160.5C 420.51 172.906 417.177 177.573 402.5 174.5C 402.194 171.615 402.527 168.948 403.5 166.5C 403.5 168.833 403.5 171.167 403.5 173.5C 405.5 173.5 407.5 173.5 409.5 173.5C 409.253 170.061 409.586 166.728 410.5 163.5C 411.551 162.778 412.218 161.778 412.5 160.5z" stroke="none" fill="#ECC2B8" fill-rule="nonzero" />
	</g>
	<g>
        <path d="M94.5 178.5C 98.1219 177.924 101.122 178.924 103.5 181.5C 99.2632 184.644 96.2632 183.644 94.5 178.5z" stroke="none" fill="#719257" fill-rule="nonzero" />
	</g>
	<g>
        <path d="M53.5 179.5C 58.3347 180.16 60.1681 182.827 59 187.5C 56.1592 190.99 52.9926 191.657 49.5 189.5C 47.5767 184.697 48.91 181.364 53.5 179.5z" stroke="none" fill="#EFBEBC" fill-rule="nonzero" />
	</g>
	<g>
        <path d="M397.5 179.5C 399.857 179.337 402.19 179.503 404.5 180C 402.811 183.964 399.811 185.464 395.5 184.5C 395.392 182.486 396.058 180.82 397.5 179.5z" stroke="none" fill="#76985B" fill-rule="nonzero" />
	</g>
	<g>
        <path d="M53.5 184.5C 55.337 184.639 55.6704 185.306 54.5 186.5C 53.7025 186.043 53.3691 185.376 53.5 184.5z" stroke="none" fill="#541917" fill-rule="nonzero" />
	</g>
	<g>
        <path d="M440.5 181.5C 447.93 179.441 451.097 182.107 450 189.5C 440.684 194.185 437.517 191.518 440.5 181.5z" stroke="none" fill="#EEBEBB" fill-rule="nonzero" />
	</g>
	<g>
        <path d="M443.5 185.5C 445.337 185.639 445.67 186.306 444.5 187.5C 443.702 187.043 443.369 186.376 443.5 185.5z" stroke="none" fill="#591919" fill-rule="nonzero" />
	</g>
	<g>
        <path d="M56.5 197.5C 58.9892 197.298 61.3225 197.798 63.5 199C 64.3366 200.011 64.67 201.178 64.5 202.5C 60.2536 203.239 57.587 201.573 56.5 197.5z" stroke="none" fill="#67904F" fill-rule="nonzero" />
	</g>
	<g>
        <path d="M435.5 198.5C 444.382 198.407 444.716 200.073 436.5 203.5C 432.872 202.564 432.539 200.898 435.5 198.5z" stroke="none" fill="#759859" fill-rule="nonzero" />
	</g>
	<g>
        <path d="M83.5 215.5C 84.8333 215.5 86.1667 215.5 87.5 215.5C 86.8443 220.5 84.1776 222.167 79.5 220.5C 80.1598 218.185 81.4931 216.519 83.5 215.5z" stroke="none" fill="#728D59" fill-rule="nonzero" />
	</g>
	<g>
        <path d="M411.5 216.5C 415.155 216.472 417.822 218.139 419.5 221.5C 414.822 223.167 412.156 221.5 411.5 216.5z" stroke="none" fill="#6C8C4E" fill-rule="nonzero" />
	</g>
</g>
</svg>